<svg xmlns="http://www.w3.org/2000/svg" viewBox="0 0 106.31 100">
  <path fill="var(--divider-ink, #111111)" fill-rule="evenodd"
        d="M53.74,28.56C54.35,27.02 54.09,24.7 52.16,24.28C51.91,24.22 51.66,24.21 51.4,24.24C50.79,24.3 50.23,24.63 49.88,25.13C49.61,25.5 49.5,26.07 48.99,26.18C48.45,26.29 47.88,25.92 47.54,25.54C46.66,24.56 46.72,23.08 47.15,21.91C47.39,21.34 47.71,20.82 48.13,20.37C48.52,19.95 48.97,19.58 49.46,19.29C52.35,17.63 56.04,18.8 58.17,21.13C61.47,24.74 60.98,30.7 58.02,34.36C56.07,36.76 53.3,38.28 50.22,38.61C48.44,38.8 46.51,38.63 44.8,38.06C43.2,37.53 41.73,36.77 40.38,35.74C39.29,34.9 38.33,33.88 37.54,32.76C36.69,31.57 36,30.25 35.51,28.87C33.34,22.73 35.28,15.62 39.75,10.99C41.01,9.68 42.48,8.55 44.08,7.68C45.99,6.64 48.06,5.91 50.22,5.57C57.49,4.45 64.82,7.94 69.18,13.72C73.47,19.39 74.67,27.41 72.72,34.19C71.82,37.31 70.39,40.13 68.35,42.66C66.64,44.8 64.62,46.75 62.36,48.32C57.44,51.74 51.39,52.83 45.53,51.69C44.25,51.44 42.97,51.08 41.74,50.61C40.05,49.96 38.41,49.18 36.68,48.64C31.61,47.06 26.01,46.51 20.82,47.9C18.87,48.43 16.96,49.1 15.17,50.03C8.63,53.41 3.6,59.09 1.3,66.12C0.58,68.32 0.18,70.62 0.03,72.93C-0.12,75.29 0.13,77.7 0.63,80C1.2,82.66 2.21,85.24 3.58,87.59C8.75,96.41 19.5,101.69 29.59,99.03C31.49,98.53 33.33,97.76 35.02,96.76C36.81,95.69 38.48,94.35 39.87,92.79C41.47,90.98 42.73,88.92 43.6,86.66C44.55,84.22 45.02,81.55 44.99,78.92C44.91,72.98 42.42,67.14 37.51,63.62C31.1,59.03 21.43,59.42 16.13,65.54C15.3,66.5 14.58,67.59 14.04,68.74C12,73.08 12.53,78.28 15.29,82.18C16.51,83.92 18.26,85.29 20.24,86.06C23.27,87.22 26.92,86.84 29.48,84.82C31.04,83.59 32.18,81.7 32.37,79.71C32.65,76.83 31.3,73.5 28.28,72.69C27.82,72.57 27.36,72.53 26.89,72.54C25.26,72.63 23.56,73.77 23.79,75.59C23.83,75.89 23.92,76.18 24.08,76.45C24.39,76.97 24.93,77.36 25.53,77.48C25.99,77.57 26.55,77.46 26.91,77.84C27.41,78.36 27.32,79.24 27.02,79.83C26.45,80.91 25.26,81.43 24.09,81.49C23.46,81.5 22.84,81.42 22.25,81.22C18.45,79.91 17.29,75.23 18.63,71.77C18.88,71.1 19.22,70.47 19.63,69.9C22.25,66.23 27.18,65.13 31.33,66.58C32.34,66.93 33.28,67.42 34.16,68.03C40.01,72.11 41.01,80.56 37.65,86.52C34.67,91.82 28.62,94.83 22.6,94.29C21.07,94.16 19.57,93.81 18.13,93.27C9.21,89.9 4.02,80.01 5.67,70.71C7.19,62.24 13.6,55.25 21.98,53.19C24.9,52.47 27.94,52.35 30.91,52.79C34.2,53.29 37.44,54.41 40.29,56.14C44.6,58.75 48.04,62.75 49.94,67.41C50.67,69.21 51.11,71.09 51.45,72.99C51.74,74.66 51.92,76.35 52.36,77.99C52.99,80.39 53.81,82.72 54.98,84.9C56.53,87.81 58.66,90.41 61.13,92.58C68.08,98.7 78.17,101.6 87.23,99.14C89.21,98.6 91.16,97.81 92.95,96.81C95.23,95.53 97.31,93.94 99.13,92.06C100.92,90.21 102.43,88.06 103.56,85.74C105.7,81.37 106.55,76.59 106.25,71.74C106.06,68.82 105.41,65.95 104.18,63.29C101.22,56.95 95.26,52.27 88.34,51.08C85.6,50.61 82.75,50.73 80.04,51.35C78.28,51.76 76.56,52.42 74.98,53.31C69.14,56.6 64.96,62.85 64.7,69.62C64.57,73.14 65.44,76.63 67.37,79.6C70.58,84.56 76.67,87.42 82.54,86.57C87.3,85.89 91.51,82.56 93.16,78.02C94.89,73.25 93.53,67.27 88.88,64.69C88.18,64.3 87.42,64 86.63,63.81C83.99,63.18 80.99,63.78 78.96,65.64C76.89,67.53 75.9,70.85 77.56,73.32C77.82,73.72 78.13,74.06 78.49,74.37C79.82,75.38 81.97,75.5 82.99,73.97C83.16,73.72 83.27,73.43 83.31,73.13C83.41,72.52 83.25,71.91 82.82,71.45C82.54,71.15 82.08,70.92 82.02,70.46C81.96,69.92 82.48,69.44 82.89,69.18C84.07,68.46 85.56,68.75 86.64,69.51C87.14,69.89 87.55,70.36 87.87,70.9C89.88,74.34 87.69,78.72 84.48,80.48C80.1,82.9 74.68,80.61 72.03,76.73C70.32,74.23 69.76,71.11 70.28,68.15C70.6,66.34 71.31,64.49 72.31,62.95C73.3,61.45 74.5,60.12 75.95,59.04C77.12,58.17 78.46,57.48 79.84,57C81.09,56.57 82.43,56.29 83.76,56.22C85.28,56.15 86.79,56.26 88.28,56.6C93.24,57.74 97.36,61.45 99.42,66.04C102.3,72.48 101.28,80.42 97.17,86.11C94.37,90 90.23,92.88 85.57,94.06C78.28,95.9 70.24,93.48 64.73,88.48C62.48,86.43 60.64,84.02 59.32,81.28C58.27,79.1 57.55,76.72 57.21,74.32C56.89,72.02 56.87,69.66 57.26,67.37C58.01,62.91 60.13,58.64 63.18,55.3C64.85,53.49 66.78,51.99 68.62,50.36C69.99,49.16 71.27,47.85 72.41,46.43C75.38,42.77 77.4,38.33 78.32,33.71C79.04,30.14 79.21,26.45 78.7,22.83C77.86,16.89 75.09,11.21 70.72,7.06C69.17,5.59 67.45,4.32 65.6,3.27C63.62,2.15 61.5,1.3 59.29,0.76C56.8,0.15 54.19,-0.13 51.63,0.03C44.26,0.49 37.29,4.34 33.17,10.5C28.33,17.73 27.7,27.65 32.37,35.11C33.12,36.31 34.01,37.42 35.01,38.41C36.42,39.8 38.04,40.95 39.79,41.85C45.24,44.67 52.34,44.9 57.7,41.76C60.26,40.26 62.42,38.06 63.82,35.44C66.69,30.05 66.55,22.81 62.53,18.01C59.77,14.71 55.72,12.85 51.39,13.24C46.4,13.69 42.09,17.77 41.71,22.82C41.64,23.71 41.7,24.6 41.9,25.47C42.39,27.58 43.69,29.5 45.6,30.56C48.3,32.05 52.38,31.67 53.74,28.56Z"/>
</svg>
